<?xml version="1.0" encoding="UTF-8"?>
<svg id="Layer_1" xmlns="http://www.w3.org/2000/svg" viewBox="0 0 570.09 104.69">
  <defs>
    <style>
      .cls-1 {
        fill: #06f;
      }
    </style>
  </defs>
  <path class="cls-1" d="M85.95.16C58.1.05,30.14-.18,2.31.27,1.34.67.68,1.34.27,2.31-.18,30.08.05,58,.16,85.8c.28,1.07,2.02,2.63,3.13,2.63h69.94l-11.15-11.26c-1-.95-2.14-1.4-3.55-1.14-1.67.32-4.15,1.72-6.17,2.22C25.59,84.8,2.66,57.37,13.85,32.15c8.81-19.86,34.41-26.23,51.46-12.58-3.35,2.64-8.39,6.3-12.72,3.84l-7.67-5.39c3.86,5.23,9.18,9.68,5.23,16.6-.24.42-1.67,2.26-1.63,2.44.06.31.41.35.73.26.55-.15,1.79-1.26,2.46-1.62,6.7-3.57,11.16,1.57,16.12,5.31l.36-.12c-2.16-2.88-6.48-7.33-6.72-11.01-.27-4.15,2.27-6.53,4.96-9.21,9.85,8.35,13.9,21.91,10.23,34.42-.5,1.69-2.54,5.61-2.47,6.87.04.69.38,1.53.84,2.05l13.56,13.41V3.04c0-.91-1.7-2.63-2.63-2.88ZM79.94,18.01c-1.12-.41-2.16-1.78-3.14-2.25-2.64-1.26-7.44,1.95-9.57,3.57-.22.3-.69-.08-.72-.25-.17-.8,6.28-5.63,4.61-9.15-.25-.53-2.1-2.29-1.73-2.7,1.57.52,3.05,2.6,4.69,2.86,1.77.28,2.76-.62,4.18-1.42.14,1.56-1.4,2.48-1.19,4.17.15,1.21,3.23,4.72,2.87,5.17Z"/>
  <path class="cls-1" d="M449.88,30.91l.23,1.57c7.08.82,6.63,7.11,5.11,12.51-1.67,5.94-4.57,11.83-6.3,17.78l-.52-.55-10.69-25.97c-.7-4.03,2.15-3.65,5.22-3.65v-1.68l-15.49.49-6.46-.5h-11.41s0-14.12,0-14.12c-3.75,1.92-8.03,2.73-12.24,2.63v11.5h-7.2v1.44h7.2v33.41c0,11.97,15.92,14.37,21.79,5.23.3-.47,1.44-2.66,1.49-3.09.05-.46-.78-.65-1.09-.82l-1.46,2.38c-1.48,2.1-4.67,3.7-7.05,2.04-.68-.47-1.45-2.1-1.45-2.86v-36.29h9.72c2.03,0,4,2.11,4.8,3.83l18.83,42.78c-2.64,9.83-11.03,22.99-22.99,20.07-6.9-1.68-7.64-9.46-2.41-13.6,4.11-3.25,11.35-4.08,16.41-3.49,2.03.23,3.9.88,5.87,1.33.24.06.78.32.73-.13-8.46-4.09-22.9-2.82-27.72,6.22-4.69,8.81,2.33,17.65,11.93,14.79,7.97-2.38,15.57-13.85,18.61-21.19,6.02-14.53,10.16-30.39,16.09-45.02.73-1.6,1.87-3.56,3.32-4.59,1.19-.84,2.37-.6,2-2.44h-14.88Z"/>
  <path class="cls-1" d="M216.09,73.47c-.89.85-3.24,2.27-4.2.89-1.24-1.77.31-7.73.77-9.96,1.27-6.2,3.21-12.44,4.37-18.64.78-4.21,1.09-8.15-1.6-11.82-7.06-9.6-34.88-6.74-40.46,3.36-5.1,9.22,13.57,14.62,14.81,5.68.19-1.36-.22-2.63-.19-3.79.11-4.47,3.23-9.71,8.02-10.2,9.89-1.01,5.48,11.28,4.21,16.66-11.36.56-28.14,4.82-33.17,16.23-3.06,6.96-1.43,13.94,6.72,15.42,7.83,1.42,16.22-1.5,21.52-7.35.29,2.03.75,3.91,2.27,5.4,4.11,4,16.15,2.89,18.48-3.11l-.47-.37c-.14.48-.71,1.26-1.05,1.59ZM196.85,69c-6.27,5.99-15.78,7.76-13.97-4.36,1.48-9.92,8.04-18,18.65-18.15-1.27,7.56-3.84,14.87-4.68,22.51Z"/>
  <path class="cls-1" d="M313.41,71.22c-.11-.25-.54-1.71-.54-1.86V29.96c-8.47,1.87-17.08.77-25.67.96l3.96-14.13c-4.03.94-8.21,1.18-12.34,1.21l-3.64,12.89-7.74.02-.39,1.45h7.68l-9.29,33c-1.74,8.89,5.16,13.16,13.26,10.36,6.43-2.22,7.77-8.64,9.95-14.26l-1.53-.13c-1.31,3.66-3.87,12.04-9.09,10.98-1.34-.27-1.81-1.43-1.86-2.69l10.71-37.27c3.25.35,10.31-1.03,12.43,1.95,1.03,1.44,1.25,4.32,1.35,6.08.42,7.95.49,18.93,0,26.85-.24,3.9-.98,6.47-5.53,6.34v1.68h23.28v-1.68c-1.98.02-4.1-.34-4.98-2.34Z"/>
  <path class="cls-1" d="M153,41.98c-.38.14-2.19.67-2.44.67h-5.88l7.23-26.43c1.34-4.16,7.54-3.76,11.13-3.52,10.48.71,9.81,9,9.23,17.26h1.77c1.67-6.43,3.16-12.97,5.67-19.16l-48.68.03-.51,1.64c1.84.08,5.43.07,6.08,2.2.67,2.19-.78,6.56-1.35,8.88-3.26,13.32-6.98,27.31-10.8,40.48-.76,2.63-1.68,7.34-4.03,8.92-1.79,1.2-4.18.9-6.18,1.38l-.29,1.63,31.21-.1.46-1.57c-4.58-.7-8.69.46-7.81-5.76l6.39-24.16c4.58-.14,8.98-.53,10.52,4.66.27.89.65,2.45.73,3.34.14,1.49-.1,3.16,0,4.67l1.9-.02c1.68-8.55,3.49-17.1,6.26-25.36l-2.04.23c-1.68,3.78-4.52,8.59-8.59,10.11Z"/>
  <path class="cls-1" d="M537.66,68.68l-21.1-54.51-6,.12-20.09,51.51c-1.53,3.01-3.19,7.2-6.99,7.75v1.67s17.27,0,17.27,0v-1.68c-2.98.12-7.18-.66-7.66-4.21-.75-5.54,2.78-11.89,4.53-17l18.38-.12.71.25c1.92,6.05,4.89,11.86,6.14,18.09-.09,2.95-3.81,3-6.02,2.99v1.68s26.16,0,26.16,0v-1.68c-2.68.03-4.36-2.69-5.32-4.87ZM498.35,50.56l8.88-23.23,8.64,23.23h-17.52Z"/>
  <path class="cls-1" d="M563.96,70.21c-.54-16.93-.64-34.08.05-51,.4-2.93,3.7-3.17,6.09-3.15v-1.68s-26.4,0-26.4,0v1.68c1.57-.04,4.14.15,5.24,1.35,1.02,1.11,1.17,4.38,1.25,5.94.76,15.3-.38,30.91-.28,46.21-.14,3.52-3.26,4.06-6.21,3.98v1.68s26.4,0,26.4,0v-1.68c-2.51.03-5.78-.25-6.13-3.34Z"/>
  <path class="cls-1" d="M337.28,61.28c-2.29-7.19-1.72-25.58,6.55-29.05,2.45-1.03,6.82-1.06,8.39,1.43-8.55,3.01-6.92,15.18,3.08,13.14,4.02-.82,5.37-5.31,4.43-8.9-1.96-7.47-11.84-8.78-18.36-8.12-24.17,2.46-24.71,44.68-.31,46.63,9.79.78,16.11-4.41,19.28-13.3l-1.4-.49c-5.24,9.05-18.21,9.51-21.67-1.36Z"/>
  <path class="cls-1" d="M255.1,29.78c-15.08-1.91-27.07,11.43-30.7,24.8-2.08,7.64-2.5,17.31,6.17,20.77,9.58,3.82,20.13-1.93,24.95-10.29l-1.53-.62c-2.85,4.34-7.13,8.11-12.72,7.42-3.21-.39-4.89-3.32-5.18-6.32-.88-9.15,2.77-22.69,8.88-29.69,2.73-3.13,7.16-6.07,11.35-3.92.19.1,1.4.86,1.12,1.16-3.53.84-7.27,4.33-7.68,8.03-.74,6.7,5.85,7.99,10.08,4.08,5.81-5.36,3.29-14.38-4.74-15.39Z"/>
  <path class="cls-1" d="M383.69,71.72c-.19-.3-.76-1.64-.76-1.88V29.96c-5.92,1.12-11.98,1.41-18,.96v1.68c3.56-.33,5.15,1.91,5.49,5.18,1.01,9.72-.7,21,.04,30.88-.27,3.6-1.86,5.06-5.53,4.9v1.54s23.52.14,23.52.14v-1.68c-1.72.11-3.78-.27-4.76-1.83Z"/>
  <path class="cls-1" d="M307.92,22.74c9.41-1.14,8.21-16.27-1.82-15.48-10.21.8-9.26,16.83,1.82,15.48Z"/>
  <path class="cls-1" d="M375.62,22.77c11.59,1.17,11.43-16.14.55-15.5-9.38.55-9.53,14.6-.55,15.5Z"/>
  <path class="cls-1" d="M472.63,62.35c-10.02.79-8.79,15.85,1.13,15.03,9.75-.81,8.5-15.79-1.13-15.03Z"/>
</svg>