<svg width="120" height="34" viewBox="0 0 120 34" fill="none" xmlns="http://www.w3.org/2000/svg">
<mask id="mask0_505_648" style="mask-type:luminance" maskUnits="userSpaceOnUse" x="43" y="0" width="34" height="34">
<path d="M76.2982 0H43V33.2982H76.2982V0Z" fill="white"/>
</mask>
<g mask="url(#mask0_505_648)">
<path d="M59.6491 33.2982C68.8443 33.2982 76.2982 25.8443 76.2982 16.6491C76.2982 7.45407 68.8443 0 59.6491 0C50.4541 0 43 7.45407 43 16.6491C43 25.8443 50.4541 33.2982 59.6491 33.2982Z" fill="#FF3B30"/>
<path d="M66.9753 9.32422L52.3242 23.9754" stroke="#FFEEED" stroke-width="3" stroke-linecap="round" stroke-linejoin="round"/>
<path d="M52.3242 9.32422L66.9753 23.9754" stroke="#FFEEED" stroke-width="3" stroke-linecap="round" stroke-linejoin="round"/>
</g>
<mask id="mask1_505_648" style="mask-type:luminance" maskUnits="userSpaceOnUse" x="86" y="0" width="34" height="34">
<path d="M119.299 0H86V33.2986H119.299V0Z" fill="white"/>
</mask>
<g mask="url(#mask1_505_648)">
<path d="M102.649 0.5C111.568 0.500069 118.799 7.73045 118.799 16.6494C118.799 25.5684 111.568 32.7988 102.649 32.7988C93.7305 32.7988 86.5001 25.5685 86.5 16.6494C86.5 7.73041 93.7304 0.5 102.649 0.5Z" fill="#FF8F29" stroke="#FFF3EB"/>
<path d="M97.9883 11.6416C97.9883 10.656 98.2808 9.69249 98.829 8.87296C99.3769 8.05346 100.156 7.41474 101.067 7.03754C101.979 6.66034 102.982 6.56168 103.949 6.75397C104.917 6.94625 105.806 7.42086 106.503 8.11782C107.201 8.81476 107.676 9.70273 107.868 10.6694C108.061 11.6361 107.962 12.6381 107.584 13.5486C107.207 14.4593 106.568 15.2375 105.747 15.7852C104.927 16.3325 103.963 16.625 102.976 16.625V19.9472" stroke="#FFF3EB" stroke-width="3" stroke-linecap="round" stroke-linejoin="round"/>
<mask id="path-8-inside-1_505_648" fill="white">
<path d="M102.97 26.4747C102.576 26.4747 102.258 26.156 102.258 25.7629C102.258 25.3694 102.576 25.0508 102.97 25.0508"/>
</mask>
<path d="M102.97 26.4747C102.576 26.4747 102.258 26.156 102.258 25.7629C102.258 25.3694 102.576 25.0508 102.97 25.0508" fill="#FF8F29"/>
<path d="M102.97 26.4747V23.4747C104.233 23.4747 105.258 24.4992 105.258 25.7629H102.258H99.2578C99.2578 27.8129 100.92 29.4747 102.97 29.4747V26.4747ZM102.258 25.7629H105.258C105.258 27.0256 104.234 28.0508 102.97 28.0508V25.0508V22.0508C100.919 22.0508 99.2578 23.7133 99.2578 25.7629H102.258Z" fill="#FFF3EB" mask="url(#path-8-inside-1_505_648)"/>
<path d="M102.97 26.4747C102.576 26.4747 102.258 26.156 102.258 25.7629C102.258 25.3694 102.576 25.0508 102.97 25.0508" stroke="#FFF3EB" stroke-width="3" stroke-linecap="round" stroke-linejoin="round"/>
<mask id="path-11-inside-2_505_648" fill="white">
<path d="M102.973 26.4747C103.366 26.4747 103.684 26.156 103.684 25.7629C103.684 25.3694 103.366 25.0508 102.973 25.0508"/>
</mask>
<path d="M102.973 26.4747C103.366 26.4747 103.684 26.156 103.684 25.7629C103.684 25.3694 103.366 25.0508 102.973 25.0508" fill="#FF8F29"/>
<path d="M102.973 26.4747V29.4747C105.023 29.4747 106.684 27.8129 106.684 25.7629H103.684H100.684C100.684 24.4992 101.709 23.4747 102.973 23.4747V26.4747ZM103.684 25.7629H106.684C106.684 23.7133 105.023 22.0508 102.973 22.0508V25.0508V28.0508C101.708 28.0508 100.684 27.0256 100.684 25.7629H103.684Z" fill="#FFF3EB" mask="url(#path-11-inside-2_505_648)"/>
<path d="M102.973 26.4747C103.366 26.4747 103.684 26.156 103.684 25.7629C103.684 25.3694 103.366 25.0508 102.973 25.0508" stroke="#FFF3EB" stroke-width="3" stroke-linecap="round" stroke-linejoin="round"/>
</g>
<mask id="mask2_505_648" style="mask-type:luminance" maskUnits="userSpaceOnUse" x="0" y="0" width="34" height="34">
<path d="M33.2986 0H0V33.2986H33.2986V0Z" fill="white"/>
</mask>
<g mask="url(#mask2_505_648)">
<path d="M16.6493 33.2986C25.8446 33.2986 33.2986 25.8446 33.2986 16.6493C33.2986 7.45414 25.8446 0 16.6493 0C7.45414 0 0 7.45414 0 16.6493C0 25.8446 7.45414 33.2986 16.6493 33.2986Z" fill="#03C462"/>
<path fill-rule="evenodd" clip-rule="evenodd" d="M24.824 8.29745C25.3911 8.76604 25.471 9.6056 25.0023 10.1726L14.2935 23.1315L14.2901 23.1354C14.0466 23.4279 13.741 23.6623 13.3952 23.8218C13.0496 23.9814 12.6729 24.0618 12.2923 24.0575C11.9054 24.0526 11.5235 23.9602 11.1775 23.7873C10.8326 23.6149 10.5311 23.3667 10.2955 23.0616L10.2931 23.0585L6.94079 18.7484C6.48916 18.1677 6.59377 17.3309 7.17442 16.8791C7.75507 16.4275 8.59192 16.5323 9.04355 17.1127L12.3249 21.3316L22.9488 8.4757C23.4173 7.90865 24.2569 7.82884 24.824 8.29745Z" fill="#EAF9F0"/>
</g>
</svg>
